<svg preserveAspectRatio="none" width="100%" height="100%" overflow="visible" style="display: block;" viewBox="0 0 23 23" fill="none" xmlns="http://www.w3.org/2000/svg">
<g id="62b27efbeb4669b42a4b77f2_Prancheta 2 1">
<path id="Union" d="M15.2041 1.20605C15.2502 1.20699 15.2967 1.2081 15.3428 1.20996H15.3418C15.4559 1.2137 15.5684 1.22218 15.6807 1.23242C15.6778 1.23334 15.6747 1.23453 15.6719 1.23633C14.0988 1.97008 12.9948 3.50389 12.9209 5.29492C12.918 5.34245 12.918 5.39001 12.918 5.43848V5.48926L12.916 11.751C15.7224 11.0423 17.7939 8.56662 17.7939 5.62012C17.7939 3.93268 17.113 2.4012 16.0059 1.26562C19.2643 1.62085 21.7969 4.30196 21.7969 7.55957C21.7968 11.0585 18.8755 13.8944 15.2715 13.8945C14.4407 13.8945 13.6467 13.7419 12.916 13.4668V15.7754C12.8478 18.3877 11.1094 20.5982 8.69824 21.4365C8.11056 21.6407 7.48305 21.763 6.83008 21.79C6.78398 21.7919 6.7375 21.794 6.69141 21.7949C6.64549 21.7959 6.59862 21.7969 6.55176 21.7969C6.5047 21.7969 6.45723 21.7949 6.41113 21.7949C6.36506 21.794 6.31853 21.7919 6.27246 21.79C6.16122 21.7844 6.05171 21.7748 5.94238 21.7637C7.51541 21.0299 8.61941 19.4961 8.69336 17.7051C8.69622 17.6726 8.69824 17.6399 8.69824 17.6064V7.38477C8.69824 4.70334 10.4566 2.42035 12.916 1.56445C13.5036 1.36038 14.1314 1.23701 14.7852 1.20996C14.8313 1.2081 14.8777 1.20699 14.9238 1.20605C14.9697 1.20513 15.0166 1.20411 15.0635 1.2041C15.1105 1.2041 15.158 1.20512 15.2041 1.20605ZM3.84082 15.0459C5.23409 15.0461 6.47656 16.1922 6.47656 17.6064C6.47656 19.0197 5.2965 20.1658 3.84082 20.166C3.16861 20.166 2.5556 19.9223 2.08984 19.5205L2.08887 19.5195C1.54532 19.0506 1.20312 18.3672 1.20312 17.6064C1.20313 17.5459 1.20519 17.4854 1.21094 17.4268V17.4238C1.30697 16.0943 2.44738 15.0459 3.84082 15.0459Z" fill="var(--fill-0, white)"/>
</g>
</svg>
