<svg preserveAspectRatio="none" width="100%" height="100%" overflow="visible" style="display: block;" viewBox="0 0 12.9911 14.4189" fill="none" xmlns="http://www.w3.org/2000/svg">
<path id="vector" d="M4.58438 7.30293L5.9222 8.63933C6.57825 7.49217 7.49479 6.52344 8.58438 5.77941M5.75124 0.868892L2.15951 2.16591C1.39339 2.44256 0.871585 3.1562 0.840279 3.97015L0.755444 6.17587C0.650323 8.909 2.07497 11.4735 4.45103 12.8283L5.46481 13.4063C6.06536 13.7487 6.80015 13.7567 7.40801 13.4275L8.40044 12.8899C10.9453 11.5114 12.4414 8.76504 12.2194 5.87931L12.0681 3.91231C12.0078 3.12794 11.4932 2.45179 10.7533 2.1846L7.10982 0.868892C6.67083 0.710369 6.19023 0.710369 5.75124 0.868892Z" stroke="var(--stroke-0, white)" stroke-width="1.5" stroke-linecap="round" stroke-linejoin="round"/>
</svg>
