<svg preserveAspectRatio="none" width="100%" height="100%" overflow="visible" style="display: block;" viewBox="0 0 14.8236 14" fill="none" xmlns="http://www.w3.org/2000/svg">
<path id="Vector" d="M3.11094 1.55625C3.11073 1.96878 2.94666 2.36434 2.6548 2.6559C2.36295 2.94746 1.96723 3.11114 1.55469 3.11094C1.14216 3.11073 0.746598 2.94666 0.455037 2.6548C0.163475 2.36295 -0.000206073 1.96723 1.94715e-07 1.55469C0.000206463 1.14216 0.164284 0.746598 0.456136 0.455037C0.747989 0.163475 1.14371 -0.000206073 1.55625 1.94715e-07C1.96878 0.000206463 2.36434 0.164284 2.6559 0.456136C2.94746 0.747989 3.11114 1.14371 3.11094 1.55625ZM3.1576 4.26276H0.0466642V14H3.1576V4.26276ZM8.07289 4.26276H4.9775V14H8.04178V8.89028C8.04178 6.04378 11.7516 5.77935 11.7516 8.89028V14H14.8236V7.83257C14.8236 3.03394 9.33282 3.21282 8.04178 5.56936L8.07289 4.26276Z" fill="var(--fill-0, white)"/>
</svg>
